<svg xmlns="http://www.w3.org/2000/svg" width="860" height="430" viewBox="0 0 860 430" font-family="'Comic Sans MS','Marker Felt','Segoe UI','Kaiti SC',楷体,cursive">
  <defs>
    <filter id="sk" x="-3%" y="-3%" width="106%" height="106%">
      <feTurbulence type="fractalNoise" baseFrequency="0.018" numOctaves="2" seed="21" result="n"/>
      <feDisplacementMap in="SourceGraphic" in2="n" scale="1.8"/>
    </filter>
  </defs>
  <rect width="860" height="430" fill="#fdfcf7"/>
  <text x="430" y="30" text-anchor="middle" font-size="19" font-weight="bold" fill="#2b2b2b">MHA / GQA / MQA：KV 头共享方式对比（以 8 个 query 头为例）</text>
  <path d="M 250 38 Q 430 46 610 38" stroke="#2b2b2b" stroke-width="1.5" fill="none" filter="url(#sk)"/>

  <!-- ── MHA 面板 ── -->
  <g filter="url(#sk)">
    <rect x="40" y="58" width="780" height="96" rx="8" fill="#e8f0fa" stroke="#4a8edb" stroke-width="1.3" fill-opacity="0.25"/>
  </g>
  <text x="56" y="88" font-size="14" fill="#2b6e9e" font-weight="bold">MHA</text>
  <text x="56" y="106" font-size="10" fill="#666">n_kv = 8</text>
  <g filter="url(#sk)">
    <rect x="140" y="68" width="34" height="20" rx="4" fill="#e8f0fa" stroke="#4a8edb" stroke-width="1.2"/>
    <rect x="182" y="68" width="34" height="20" rx="4" fill="#e8f0fa" stroke="#4a8edb" stroke-width="1.2"/>
    <rect x="224" y="68" width="34" height="20" rx="4" fill="#e8f0fa" stroke="#4a8edb" stroke-width="1.2"/>
    <rect x="266" y="68" width="34" height="20" rx="4" fill="#e8f0fa" stroke="#4a8edb" stroke-width="1.2"/>
    <rect x="308" y="68" width="34" height="20" rx="4" fill="#e8f0fa" stroke="#4a8edb" stroke-width="1.2"/>
    <rect x="350" y="68" width="34" height="20" rx="4" fill="#e8f0fa" stroke="#4a8edb" stroke-width="1.2"/>
    <rect x="392" y="68" width="34" height="20" rx="4" fill="#e8f0fa" stroke="#4a8edb" stroke-width="1.2"/>
    <rect x="434" y="68" width="34" height="20" rx="4" fill="#e8f0fa" stroke="#4a8edb" stroke-width="1.2"/>
  </g>
  <g font-size="10" fill="#2b6e9e" text-anchor="middle">
    <text x="157" y="82">Q0</text><text x="199" y="82">Q1</text><text x="241" y="82">Q2</text><text x="283" y="82">Q3</text>
    <text x="325" y="82">Q4</text><text x="367" y="82">Q5</text><text x="409" y="82">Q6</text><text x="451" y="82">Q7</text>
  </g>
  <g filter="url(#sk)" stroke="#4a8edb" stroke-width="1" fill="none">
    <path d="M 157 88 L 157 118"/><path d="M 199 88 L 199 118"/><path d="M 241 88 L 241 118"/><path d="M 283 88 L 283 118"/>
    <path d="M 325 88 L 325 118"/><path d="M 367 88 L 367 118"/><path d="M 409 88 L 409 118"/><path d="M 451 88 L 451 118"/>
  </g>
  <g filter="url(#sk)">
    <rect x="140" y="118" width="34" height="20" rx="4" fill="#dbe7f6" stroke="#4a8edb" stroke-width="1.2"/>
    <rect x="182" y="118" width="34" height="20" rx="4" fill="#dbe7f6" stroke="#4a8edb" stroke-width="1.2"/>
    <rect x="224" y="118" width="34" height="20" rx="4" fill="#dbe7f6" stroke="#4a8edb" stroke-width="1.2"/>
    <rect x="266" y="118" width="34" height="20" rx="4" fill="#dbe7f6" stroke="#4a8edb" stroke-width="1.2"/>
    <rect x="308" y="118" width="34" height="20" rx="4" fill="#dbe7f6" stroke="#4a8edb" stroke-width="1.2"/>
    <rect x="350" y="118" width="34" height="20" rx="4" fill="#dbe7f6" stroke="#4a8edb" stroke-width="1.2"/>
    <rect x="392" y="118" width="34" height="20" rx="4" fill="#dbe7f6" stroke="#4a8edb" stroke-width="1.2"/>
    <rect x="434" y="118" width="34" height="20" rx="4" fill="#dbe7f6" stroke="#4a8edb" stroke-width="1.2"/>
  </g>
  <g font-size="10" fill="#2b6e9e" text-anchor="middle">
    <text x="157" y="132">K0V0</text><text x="199" y="132">K1V1</text><text x="241" y="132">K2V2</text><text x="283" y="132">K3V3</text>
    <text x="325" y="132">K4V4</text><text x="367" y="132">K5V5</text><text x="409" y="132">K6V6</text><text x="451" y="132">K7V7</text>
  </g>
  <text x="560" y="96" font-size="12" fill="#2b2b2b">每个 Q 头独立一份 K/V</text>
  <text x="560" y="116" font-size="12" fill="#2b6e9e" font-weight="bold">cache 基准 1×（8 份）</text>

  <!-- ── GQA 面板 ── -->
  <g filter="url(#sk)">
    <rect x="40" y="160" width="780" height="96" rx="8" fill="#eaf6ee" stroke="#4a8e4a" stroke-width="1.3" fill-opacity="0.25"/>
  </g>
  <text x="56" y="190" font-size="14" fill="#2e6e2e" font-weight="bold">GQA</text>
  <text x="56" y="208" font-size="10" fill="#666">n_kv = 2，g=4</text>
  <g filter="url(#sk)">
    <rect x="140" y="170" width="34" height="20" rx="4" fill="#eaf6ee" stroke="#4a8e4a" stroke-width="1.2"/>
    <rect x="182" y="170" width="34" height="20" rx="4" fill="#eaf6ee" stroke="#4a8e4a" stroke-width="1.2"/>
    <rect x="224" y="170" width="34" height="20" rx="4" fill="#eaf6ee" stroke="#4a8e4a" stroke-width="1.2"/>
    <rect x="266" y="170" width="34" height="20" rx="4" fill="#eaf6ee" stroke="#4a8e4a" stroke-width="1.2"/>
    <rect x="308" y="170" width="34" height="20" rx="4" fill="#eaf6ee" stroke="#4a8e4a" stroke-width="1.2"/>
    <rect x="350" y="170" width="34" height="20" rx="4" fill="#eaf6ee" stroke="#4a8e4a" stroke-width="1.2"/>
    <rect x="392" y="170" width="34" height="20" rx="4" fill="#eaf6ee" stroke="#4a8e4a" stroke-width="1.2"/>
    <rect x="434" y="170" width="34" height="20" rx="4" fill="#eaf6ee" stroke="#4a8e4a" stroke-width="1.2"/>
  </g>
  <g font-size="10" fill="#2e6e2e" text-anchor="middle">
    <text x="157" y="184">Q0</text><text x="199" y="184">Q1</text><text x="241" y="184">Q2</text><text x="283" y="184">Q3</text>
    <text x="325" y="184">Q4</text><text x="367" y="184">Q5</text><text x="409" y="184">Q6</text><text x="451" y="184">Q7</text>
  </g>
  <g filter="url(#sk)" stroke="#4a8e4a" stroke-width="1" fill="none">
    <path d="M 157 190 Q 180 205 200 218"/><path d="M 199 190 Q 210 205 210 218"/><path d="M 241 190 Q 235 205 240 218"/><path d="M 283 190 Q 260 205 272 218"/>
    <path d="M 325 190 Q 345 205 368 218"/><path d="M 367 190 Q 372 205 378 218"/><path d="M 409 190 Q 392 205 388 218"/><path d="M 451 190 Q 428 205 398 218"/>
  </g>
  <g filter="url(#sk)">
    <rect x="140" y="220" width="162" height="20" rx="4" fill="#dcefe2" stroke="#4a8e4a" stroke-width="1.2"/>
    <rect x="308" y="220" width="162" height="20" rx="4" fill="#dcefe2" stroke="#4a8e4a" stroke-width="1.2"/>
  </g>
  <g font-size="10" fill="#2e6e2e" text-anchor="middle">
    <text x="221" y="234">K0V0 ← Q0-Q3（kv_h = h/4）</text>
    <text x="389" y="234">K1V1 ← Q4-Q7</text>
  </g>
  <text x="560" y="198" font-size="12" fill="#2b2b2b">每 4 个 Q 头共享一组 K/V</text>
  <text x="560" y="218" font-size="12" fill="#2e6e2e" font-weight="bold">cache → 1/4（LLaMA-3 同理 32Q/8KV）</text>

  <!-- ── MQA 面板 ── -->
  <g filter="url(#sk)">
    <rect x="40" y="262" width="780" height="96" rx="8" fill="#fef6e6" stroke="#c98a2b" stroke-width="1.3" fill-opacity="0.25"/>
  </g>
  <text x="56" y="292" font-size="14" fill="#7a5415" font-weight="bold">MQA</text>
  <text x="56" y="310" font-size="10" fill="#666">n_kv = 1</text>
  <g filter="url(#sk)">
    <rect x="140" y="272" width="34" height="20" rx="4" fill="#fef6e6" stroke="#c98a2b" stroke-width="1.2"/>
    <rect x="182" y="272" width="34" height="20" rx="4" fill="#fef6e6" stroke="#c98a2b" stroke-width="1.2"/>
    <rect x="224" y="272" width="34" height="20" rx="4" fill="#fef6e6" stroke="#c98a2b" stroke-width="1.2"/>
    <rect x="266" y="272" width="34" height="20" rx="4" fill="#fef6e6" stroke="#c98a2b" stroke-width="1.2"/>
    <rect x="308" y="272" width="34" height="20" rx="4" fill="#fef6e6" stroke="#c98a2b" stroke-width="1.2"/>
    <rect x="350" y="272" width="34" height="20" rx="4" fill="#fef6e6" stroke="#c98a2b" stroke-width="1.2"/>
    <rect x="392" y="272" width="34" height="20" rx="4" fill="#fef6e6" stroke="#c98a2b" stroke-width="1.2"/>
    <rect x="434" y="272" width="34" height="20" rx="4" fill="#fef6e6" stroke="#c98a2b" stroke-width="1.2"/>
  </g>
  <g font-size="10" fill="#7a5415" text-anchor="middle">
    <text x="157" y="286">Q0</text><text x="199" y="286">Q1</text><text x="241" y="286">Q2</text><text x="283" y="286">Q3</text>
    <text x="325" y="286">Q4</text><text x="367" y="286">Q5</text><text x="409" y="286">Q6</text><text x="451" y="286">Q7</text>
  </g>
  <g filter="url(#sk)" stroke="#c98a2b" stroke-width="1" fill="none">
    <path d="M 157 292 Q 190 308 285 322"/><path d="M 199 292 Q 225 308 292 322"/><path d="M 241 292 Q 250 308 299 322"/><path d="M 283 292 Q 280 308 304 322"/>
    <path d="M 325 292 Q 322 308 310 322"/><path d="M 367 292 Q 355 308 317 322"/><path d="M 409 292 Q 388 308 324 322"/><path d="M 451 292 Q 420 308 330 322"/>
  </g>
  <g filter="url(#sk)">
    <rect x="140" y="322" width="330" height="20" rx="4" fill="#fbeed3" stroke="#c98a2b" stroke-width="1.2"/>
  </g>
  <text x="305" y="336" font-size="10" fill="#7a5415" text-anchor="middle">K0V0 ← 全部 Q 头共享</text>
  <text x="560" y="300" font-size="12" fill="#2b2b2b">所有 Q 头共享同一份 K/V</text>
  <text x="560" y="320" font-size="12" fill="#7a5415" font-weight="bold">cache → 1/8，⚠ 头多样性受损</text>

  <!-- ── 底部 MLA 提示 ── -->
  <g filter="url(#sk)">
    <rect x="40" y="368" width="780" height="44" rx="8" fill="#f3eaf7" stroke="#8e5db8" stroke-width="1.3" fill-opacity="0.3"/>
  </g>
  <text x="56" y="386" font-size="13" fill="#5d3a7e" font-weight="bold">MLA 换思路：不存 K/V 头</text>
  <text x="56" y="404" font-size="11" fill="#5d3a7e">只缓存 1 个低秩联合隐向量 c_KV（d_c=512）+ 共享位置键 k_R（64 维）→ 机制详见下一张图</text>
</svg>
